<svg xmlns="http://www.w3.org/2000/svg" viewBox="0 0 21.02 26.27"><defs><style>.cls-1{fill:none;}.cls-2{fill:#fff;}</style></defs><g id="Layer_2" data-name="Layer 2"><g id="Layer_1-2" data-name="Layer 1"><path class="cls-1" d="M11.49,14.47c-.39.39-.7.67-1.05.67h0c-.35,0-.65-.27-1-.66s-.75-.75-1.12-1.14l-.4-.41-.43.44,3,3,4.91-4.92L15,11Z"/><path class="cls-2" d="M16.94,11c-.5-.5-1-1-1.51-1.5-.35-.36-.53-.36-.89,0l-1.65,1.65L10.43,13.6l-.74-.75L8.28,11.44a.62.62,0,0,0-.42-.23.62.62,0,0,0-.41.22c-.53.52-1,1.05-1.57,1.58-.32.33-.32.48,0,.81C7.27,15.21,8.66,16.59,10,18c.32.32.49.32.82,0q3.06-3,6.1-6.11C17.3,11.52,17.29,11.36,16.94,11Zm-6.52,6L6.76,13.37l1.12-1.15.76.77,1.13,1.14c.31.31.53.51.67.51s.37-.2.7-.52L15,10.27l1,1.17Z"/><path class="cls-2" d="M18,23.5c0,.24,0,.45-.05.66a2.35,2.35,0,0,1-2.3,2.1H2.33A2.38,2.38,0,0,1,0,24.15a3.4,3.4,0,0,1,0-.45V5.38A2.42,2.42,0,0,1,2,2.83a7.46,7.46,0,0,1,1.07-.05c0-.2,0-.39,0-.57A2.36,2.36,0,0,1,5.44,0C8.2,0,11,0,13.72,0a.81.81,0,0,1,.52.24q3.27,3.24,6.53,6.52a.92.92,0,0,1,.24.59c0,4.55,0,9.1,0,13.65a2.4,2.4,0,0,1-2.49,2.48ZM13.32,1H5.71A1.46,1.46,0,0,0,4.07,2.62V20.84a1.47,1.47,0,0,0,1.65,1.64H18.39a1.48,1.48,0,0,0,1.67-1.66V7.71H15.92a2.42,2.42,0,0,1-2.6-2.61ZM3.09,3.78A1.62,1.62,0,0,0,1,5.54c0,6,0,12,0,18.05a1.49,1.49,0,0,0,1.69,1.68H15.59a1.43,1.43,0,0,0,1.29-1.8H5.62a2.44,2.44,0,0,1-1.86-.75,2.59,2.59,0,0,1-.67-1.9v-17Zm11.19-2c0,1.15,0,2.29,0,3.44a1.44,1.44,0,0,0,1.53,1.5h3.4Z"/></g></g></svg>
