<svg xmlns="http://www.w3.org/2000/svg" xmlns:xlink="http://www.w3.org/1999/xlink" id="Layer_2" viewBox="0 0 1715.32 1713.3"><defs><style>.cls-1,.cls-2{fill:#fff;}.cls-2{fill-rule:evenodd;}.cls-3{clip-path:url(#clippath);}.cls-4{fill:none;}</style><clipPath id="clippath"><rect class="cls-4" x="212.26" width="1503.07" height="1713.3"/></clipPath></defs><g id="Layer_1-2"><g class="cls-3"><g><path class="cls-1" d="M376.64,1450.96v2.71c0,9.03-2.71,17.16-8.13,24.39-32.52,54.19-73.16,102.97-119.22,140.9-8.13,8.13-18.97,13.55-29.81,13.55-24.39,0-43.35-21.68-43.35-46.06,0-13.55,5.42-24.39,16.26-32.52,37.93-32.52,73.16-73.16,97.55-116.51,8.13-18.97,24.39-29.81,43.35-29.81,24.39,0,43.35,18.97,43.35,43.35h0Z"/><path class="cls-1" d="M89.42,1171.87c0,24.39-18.97,43.35-43.35,43.35S0,1196.26,0,1171.87v-92.13c0-24.39,21.68-43.35,46.06-43.35s43.35,18.97,43.35,43.35v92.13Z"/><path class="cls-1" d="M1051.33,1117.68v192.38c0,24.39-18.97,46.06-43.35,46.06s-43.35-21.68-43.35-46.06v-192.38c0-24.39,18.97-43.35,43.35-43.35s43.35,18.97,43.35,43.35Z"/><path class="cls-1" d="M579.86,1377.8v192.38c0,24.39-18.97,43.35-43.35,43.35s-43.35-18.97-43.35-43.35v-192.38c0-24.39,18.97-43.35,43.35-43.35s43.35,18.97,43.35,43.35Z"/><path class="cls-1" d="M872.5,1347.99v2.71c0,24.39-21.68,43.35-46.06,43.35-21.68,0-43.35-18.97-43.35-43.35v-2.71c0-24.39,21.68-43.35,43.35-43.35,24.39,0,46.06,18.97,46.06,43.35Z"/><path class="cls-1" d="M1051.33,865.68v86.71c0,24.39-18.97,43.35-43.35,43.35s-43.35-18.97-43.35-43.35v-86.71c0-30.71-2.71-60.51-8.13-89.42-40.64-197.8-219.48-349.54-430.83-349.54S138.19,578.46,97.55,776.26c-5.42,28.9-8.13,58.71-8.13,89.42v81.29c0,24.39-18.97,43.35-43.35,43.35S0,971.36,0,946.97v-81.29c0-30.71,2.71-60.51,8.13-89.42,43.35-246.58,257.41-436.25,517.54-436.25s476.89,189.67,520.25,436.25c3.61,28.9,5.42,58.71,5.42,89.42h0Z"/><path class="cls-2" d="M688.24,795.23c9.03,21.68,13.55,45.16,13.55,70.45,0,65.03-35.23,119.22-86.71,151.74-27.1,13.55-56.9,21.68-89.42,21.68-14.45,0-28-1.81-40.64-5.42-16.26-3.61-31.61-9.03-46.06-16.26v216.77c0,24.39-18.97,46.06-43.35,46.06-9.03,0-17.16-2.71-24.39-8.13-7.23-3.61-12.64-9.03-16.26-16.26h0c-1.81-7.23-2.71-14.45-2.71-21.68v-368.51c0-97.55,78.58-176.13,173.42-176.13,73.16,0,135.48,43.35,162.58,105.68h0Zm-73.16,70.45c0-48.77-40.64-89.42-89.42-89.42-46.06,0-86.71,40.64-86.71,89.42s40.64,86.71,86.71,86.71c12.64,0,24.39-2.71,35.23-8.13,24.39-10.84,43.35-32.52,51.48-59.61,0-5.42,.9-11.74,2.71-18.97Z"/><path class="cls-1" d="M867.08,776.26c7.23,28.9,10.84,58.71,10.84,89.42v349.54c0,24.39-21.68,43.35-46.06,43.35-21.68,0-43.35-18.97-43.35-43.35v-349.54c0-30.71-4.52-60.51-13.55-89.42-37.93-100.26-132.77-173.42-249.28-173.42s-211.35,73.16-246.58,173.42c-10.84,28.9-16.26,58.71-16.26,89.42v349.54c0,94.84-37.93,184.25-100.26,246.58-8.13,8.13-18.97,13.55-32.52,13.55-24.39,0-43.35-21.68-43.35-43.35,0-16.26,8.13-27.1,18.97-35.23h-2.71c46.06-48.77,73.16-111.09,73.16-181.54v-349.54c0-30.71,3.61-60.51,10.84-89.42,40.64-149.03,176.13-262.83,338.7-262.83s300.77,113.8,341.41,262.83h0Z"/><path class="cls-1" d="M642.18,1277.54c-9.03-3.61-16.26-9.94-21.68-18.97-40.64-46.06-56.9-65.03-78.58-121.93-5.42-10.84-5.42-21.68-2.71-32.52,8.13-21.68,32.52-35.23,54.19-27.1,13.55,2.71,24.39,13.55,29.81,27.1,16.26,46.06,27.1,56.9,62.32,97.55,13.55,10.84,18.97,29.81,13.55,46.06-8.13,24.39-32.52,37.93-56.9,29.81Z"/></g></g></g></svg>