<svg xmlns="http://www.w3.org/2000/svg" viewBox="0 0 98.38 74.99"><defs><style>.cls-1{fill:#009080;}</style></defs><g id="Layer_2" data-name="Layer 2"><g id="Layer_1-2" data-name="Layer 1"><path class="cls-1" d="M82.71,15.33H68v1.74A22.67,22.67,0,0,1,64.61,29.4a12.56,12.56,0,0,1-2.46,3,6.76,6.76,0,0,0-2.37,6.53l.83.15a2.25,2.25,0,0,1,1.9,1.9,9.05,9.05,0,0,1,.07,1.38q0,14.91,0,29.83v1.24H63.7c2.64,0,5.28,0,7.93,0,.26,0,.6-.07.77.06a1.35,1.35,0,0,1,.54.81c0,.22-.33.55-.58.66a2.64,2.64,0,0,1-1,0H26.87c-.64,0-1.6.28-1.57-.8s1-.76,1.61-.77c2.88,0,5.75,0,8.78,0V42.26c0-2.37.43-2.91,2.76-3.38a18,18,0,0,0-.6-6.42,62.58,62.58,0,0,1-2.51-16.7,2.06,2.06,0,0,0-.09-.41H15.68c.11.33.21.62.32.91q4.8,12.68,9.59,25.36a1.14,1.14,0,0,0,1.29.87c2.15,0,2.31.19,2,2.34A14.49,14.49,0,0,1,.2,45.52C.11,44.9.06,44.28,0,43.65c-.07-.79.32-1.29,1.08-1.15,1.68.31,2.2-.57,2.72-2,3-8.07,6.07-16.11,9.13-24.16.11-.3.21-.61.37-1.06H11a3.35,3.35,0,1,1-.08-6.69c1.56,0,3.11,0,4.66,0h19A1.34,1.34,0,0,0,36,7.86c1.11-1.92,3.11-2.32,5.54-1.24,1.22-3.72,3.54-4.77,6.52-2.94,2.08-3,3.91-3.45,6.61-1.6A4.15,4.15,0,0,1,58.26,0a3.81,3.81,0,0,1,3.83,3.55c.08,1.64,0,3.29,0,5.05H88.79a3.37,3.37,0,0,1,3.67,2.77,3.27,3.27,0,0,1-3.08,3.9c-1.38.06-2.77,0-4.32,0,.14.41.24.73.35,1q4.78,12.59,9.53,25.18c.28.73.6,1.12,1.4,1h.1c1.91,0,2.09.21,1.85,2.14a14.49,14.49,0,0,1-13.41,13c-7.83.76-15.31-5.89-15.48-13.77,0-1.18.17-1.38,1.36-1.39a4.17,4.17,0,0,1,.79,0c.7.12,1-.23,1.2-.84q3.77-10,7.57-20ZM58.13,38.92c0-.64,0-1.23,0-1.82a6.91,6.91,0,0,1,2.33-5.27,17.08,17.08,0,0,0,5.14-8.64,21.65,21.65,0,0,0,.78-7.81H62.13a3.61,3.61,0,0,1,0,1.15c-.12.3-.46.52-.7.78a4.41,4.41,0,0,1-.82-.79c-.13-.23,0-.58,0-.88q0-5.55,0-11.1a4.72,4.72,0,0,0-.17-1.46,2.3,2.3,0,0,0-2.53-1.47,2.23,2.23,0,0,0-2,2.17c0,2.27,0,4.55,0,6.83,0,.59,0,1.23-.79,1.24s-.8-.61-.8-1.21c0-1.85,0-3.7,0-5.55a2.36,2.36,0,1,0-4.7.09c0,1.88,0,3.77,0,5.65a1.32,1.32,0,0,1-.78,1c-.59.1-.78-.43-.77-1C48,9.53,48,8.24,48,7a2.37,2.37,0,1,0-4.72,0c0,1,0,2,0,3,0,.54,0,1.05-.71,1.09s-.85-.43-.89-1A2.37,2.37,0,0,0,39.34,7.6,2.33,2.33,0,0,0,37,10c-.09,5.42-.11,10.84,1,16.18.63,3,1.36,6.05,2,9.09a30.76,30.76,0,0,1,.24,3.64Zm2.81,34.41c0-.3.06-.56.06-.82V41.91c0-1.18-.18-1.34-1.42-1.34H38.77c-1.39,0-1.5.11-1.5,1.54V73.33ZM4.75,42.42H24.22C21,33.91,17.8,25.49,14.6,17.07h-.23ZM84,17.09l-.24,0q-4.8,12.65-9.61,25.34H93.6Zm-13,27c.53,4.73,2.7,8.35,6.87,10.52a12.3,12.3,0,0,0,13.48-.87,12.52,12.52,0,0,0,5.42-9.65Zm-69.26,0c0,5.77,5.38,12.3,13.19,12s12.46-7,12.34-12ZM83,13.66V10.19H70.71c-2.58,0-5.16,0-7.73,0-.28,0-.78.26-.79.42-.08,1,0,2,0,3Zm-67.71,0h20V10.25h-20Zm69.39.05c1.57,0,3,0,4.47,0a1.65,1.65,0,0,0,1.67-1.52,1.55,1.55,0,0,0-1.24-1.86c-1.62-.11-3.26,0-4.9,0Zm-71-3.47c-1.08,0-2.07-.07-3,0A1.64,1.64,0,0,0,9.15,12a1.59,1.59,0,0,0,1.37,1.69,27.3,27.3,0,0,0,3.14,0Z"/></g></g></svg>